<svg width="0" height="0" class="hidden">
	<symbol xmlns="http://www.w3.org/2000/svg" viewBox="0 0 512 512" id="logo">
		<path d="M503.467 0H8.533A8.53 8.53 0 000 8.533v494.933A8.53 8.53 0 008.533 512h494.933a8.53 8.53 0 008.533-8.533V8.533A8.53 8.53 0 00503.467 0zM290.133 392.533c0 42.342-34.449 76.8-76.8 76.8s-76.8-34.458-76.8-76.8c0-4.71 3.814-8.533 8.533-8.533s8.533 3.823 8.533 8.533c0 32.939 26.803 59.733 59.733 59.733 32.93 0 59.733-26.795 59.733-59.733v-204.8a8.53 8.53 0 018.533-8.533 8.53 8.53 0 018.533 8.533v204.8zm102.4-76.8c42.351 0 76.8 34.458 76.8 76.8s-34.449 76.8-76.8 76.8-76.8-34.458-76.8-76.8a8.53 8.53 0 018.533-8.533 8.53 8.53 0 018.533 8.533c0 32.939 26.803 59.733 59.733 59.733 32.93 0 59.733-26.795 59.733-59.733 0-32.939-26.803-59.733-59.733-59.733-42.351 0-76.8-34.458-76.8-76.8s34.449-76.8 76.8-76.8 76.8 34.458 76.8 76.8a8.53 8.53 0 01-8.533 8.533 8.53 8.53 0 01-8.533-8.533c0-32.939-26.803-59.733-59.733-59.733-32.93 0-59.733 26.795-59.733 59.733s26.803 59.733 59.733 59.733z"></path>
	</symbol>
	<symbol xmlns="http://www.w3.org/2000/svg" viewBox="0 0 512 512" id="programing">
		<path d="M460.116 142.86A8.002 8.002 0 00464 136v-32h-16v27.47l-24 14.4V64h-16v168h16v-67.47zM456 200h16v80h-16zm-88-80h16v88h-16zm-46.4-36.8A8.001 8.001 0 00320 88v72h16V90.667L358.4 60.8l-12.8-9.6zM288 64h16v72h-16z" fill="#f7d179"></path>
		<path d="M488 280v192a15.996 15.996 0 01-16 16H40a15.996 15.996 0 01-16-16V40a15.995 15.995 0 0116-16h152z" fill="#5771e5"></path>
		<path d="M247.5 72H24V40a15.995 15.995 0 0116-16h152z" fill="#89a8f5"></path>
		<circle cx="456" cy="88" fill="#f7c04a" r="16"></circle>
		<path d="M456 112a24 24 0 1124-24 24.027 24.027 0 01-24 24zm0-32a8 8 0 108 8 8.01 8.01 0 00-8-8z" fill="#fcedc0"></path>
		<circle cx="464" cy="184" fill="#f7c04a" r="16"></circle>
		<path d="M464 208a24 24 0 1124-24 24.027 24.027 0 01-24 24zm0-32a8 8 0 108 8 8.01 8.01 0 00-8-8z" fill="#fcedc0"></path>
		<circle cx="416" cy="48" fill="#f7c04a" r="16"></circle>
		<path d="M416 72a24 24 0 1124-24 24.027 24.027 0 01-24 24zm0-32a8 8 0 108 8 8.01 8.01 0 00-8-8z" fill="#fcedc0"></path>
		<circle cx="376" cy="104" fill="#f7c04a" r="16"></circle>
		<path d="M376 128a24 24 0 1124-24 24.027 24.027 0 01-24 24zm0-32a8 8 0 108 8 8.01 8.01 0 00-8-8z" fill="#fcedc0"></path>
		<circle cx="296" cy="48" fill="#f7c04a" r="16"></circle>
		<path d="M296 72a24 24 0 1124-24 24.027 24.027 0 01-24 24zm0-32a8 8 0 108 8 8.01 8.01 0 00-8-8z" fill="#fcedc0"></path>
		<circle cx="360" cy="48" fill="#f7c04a" r="16"></circle>
		<path d="M360 72a24 24 0 1124-24 24.027 24.027 0 01-24 24zm0-32a8 8 0 108 8 8.01 8.01 0 00-8-8z" fill="#fcedc0"></path>
		<path d="M323.2 406.4l-32-24a8 8 0 010-12.8l32-24 9.6 12.8-23.467 17.6 23.467 17.6zm89.6 0l-9.6-12.8 23.467-17.6-23.467-17.6 9.6-12.8 32 24a8 8 0 010 12.8zm-76.068 22.21l47.994-104.006 14.528 6.704-47.994 104.005z" fill="#89a8f5"></path>
		<path d="M56 104h16v16H56zm32 0h40v16H88zm-32 32h16v16H56zm48 0h40v16h-40zm56 0h16v16h-16zm-32 32h56v16h-56zM56 280h16v16H56zm32 0h40v16H88zm-32 32h16v16H56zm48 0h96v16h-96zm112 0h16v16h-16zm-40 32h80v16h-80zm-48 0h32v16h-32zm16-112h104v16H144zm-16-32h72v16h-72zm-32 0h16v16H96zm168 32h56v16h-56zM120 376h80v16h-80zm-24 32h48v16H96zm64 0h24v16h-24zm-8 32h80v16h-80z" fill="#3d44d1"></path>
		<circle cx="48" cy="48" fill="#f79a7e" r="8"></circle>
		<circle cx="72" cy="48" fill="#f7c04a" r="8"></circle>
		<circle cx="96" cy="48" fill="#90d4b1" r="8"></circle>
	</symbol>
</svg>