<svg width="0" height="0" class="hidden">
	<symbol xmlns="http://www.w3.org/2000/svg" viewBox="0 0 512 512" id="logout">
		<path d="M255.15 468.625H63.787c-11.737 0-21.262-9.526-21.262-21.262V64.638c0-11.737 9.526-21.262 21.262-21.262H255.15c11.758 0 21.262-9.504 21.262-21.262S266.908.85 255.15.85H63.787C28.619.85 0 29.47 0 64.638v382.724c0 35.168 28.619 63.787 63.787 63.787H255.15c11.758 0 21.262-9.504 21.262-21.262 0-11.758-9.504-21.262-21.262-21.262z"></path>
		<path d="M505.664 240.861L376.388 113.286c-8.335-8.25-21.815-8.143-30.065.213s-8.165 21.815.213 30.065l92.385 91.173H191.362c-11.758 0-21.262 9.504-21.262 21.262 0 11.758 9.504 21.263 21.262 21.263h247.559l-92.385 91.173c-8.377 8.25-8.441 21.709-.213 30.065a21.255 21.255 0 0015.139 6.336c5.401 0 10.801-2.041 14.926-6.124l129.276-127.575A21.303 21.303 0 00512 255.998c0-5.696-2.275-11.118-6.336-15.137z"></path>
	</symbol>
	<symbol xmlns="http://www.w3.org/2000/svg" viewBox="0 0 512 512" id="logo">
		<path d="M503.467 0H8.533A8.53 8.53 0 000 8.533v494.933A8.53 8.53 0 008.533 512h494.933a8.53 8.53 0 008.533-8.533V8.533A8.53 8.53 0 00503.467 0zM290.133 392.533c0 42.342-34.449 76.8-76.8 76.8s-76.8-34.458-76.8-76.8c0-4.71 3.814-8.533 8.533-8.533s8.533 3.823 8.533 8.533c0 32.939 26.803 59.733 59.733 59.733 32.93 0 59.733-26.795 59.733-59.733v-204.8a8.53 8.53 0 018.533-8.533 8.53 8.53 0 018.533 8.533v204.8zm102.4-76.8c42.351 0 76.8 34.458 76.8 76.8s-34.449 76.8-76.8 76.8-76.8-34.458-76.8-76.8a8.53 8.53 0 018.533-8.533 8.53 8.53 0 018.533 8.533c0 32.939 26.803 59.733 59.733 59.733 32.93 0 59.733-26.795 59.733-59.733 0-32.939-26.803-59.733-59.733-59.733-42.351 0-76.8-34.458-76.8-76.8s34.449-76.8 76.8-76.8 76.8 34.458 76.8 76.8a8.53 8.53 0 01-8.533 8.533 8.53 8.53 0 01-8.533-8.533c0-32.939-26.803-59.733-59.733-59.733-32.93 0-59.733 26.795-59.733 59.733s26.803 59.733 59.733 59.733z"></path>
	</symbol>
	<symbol xmlns="http://www.w3.org/2000/svg" viewBox="0 0 512 512" id="programing">
		<path d="M460.116 142.86A8.002 8.002 0 00464 136v-32h-16v27.47l-24 14.4V64h-16v168h16v-67.47zM456 200h16v80h-16zm-88-80h16v88h-16zm-46.4-36.8A8.001 8.001 0 00320 88v72h16V90.667L358.4 60.8l-12.8-9.6zM288 64h16v72h-16z" fill="#f7d179"></path>
		<path d="M488 280v192a15.996 15.996 0 01-16 16H40a15.996 15.996 0 01-16-16V40a15.995 15.995 0 0116-16h152z" fill="#5771e5"></path>
		<path d="M247.5 72H24V40a15.995 15.995 0 0116-16h152z" fill="#89a8f5"></path>
		<circle cx="456" cy="88" fill="#f7c04a" r="16"></circle>
		<path d="M456 112a24 24 0 1124-24 24.027 24.027 0 01-24 24zm0-32a8 8 0 108 8 8.01 8.01 0 00-8-8z" fill="#fcedc0"></path>
		<circle cx="464" cy="184" fill="#f7c04a" r="16"></circle>
		<path d="M464 208a24 24 0 1124-24 24.027 24.027 0 01-24 24zm0-32a8 8 0 108 8 8.01 8.01 0 00-8-8z" fill="#fcedc0"></path>
		<circle cx="416" cy="48" fill="#f7c04a" r="16"></circle>
		<path d="M416 72a24 24 0 1124-24 24.027 24.027 0 01-24 24zm0-32a8 8 0 108 8 8.01 8.01 0 00-8-8z" fill="#fcedc0"></path>
		<circle cx="376" cy="104" fill="#f7c04a" r="16"></circle>
		<path d="M376 128a24 24 0 1124-24 24.027 24.027 0 01-24 24zm0-32a8 8 0 108 8 8.01 8.01 0 00-8-8z" fill="#fcedc0"></path>
		<circle cx="296" cy="48" fill="#f7c04a" r="16"></circle>
		<path d="M296 72a24 24 0 1124-24 24.027 24.027 0 01-24 24zm0-32a8 8 0 108 8 8.01 8.01 0 00-8-8z" fill="#fcedc0"></path>
		<circle cx="360" cy="48" fill="#f7c04a" r="16"></circle>
		<path d="M360 72a24 24 0 1124-24 24.027 24.027 0 01-24 24zm0-32a8 8 0 108 8 8.01 8.01 0 00-8-8z" fill="#fcedc0"></path>
		<path d="M323.2 406.4l-32-24a8 8 0 010-12.8l32-24 9.6 12.8-23.467 17.6 23.467 17.6zm89.6 0l-9.6-12.8 23.467-17.6-23.467-17.6 9.6-12.8 32 24a8 8 0 010 12.8zm-76.068 22.21l47.994-104.006 14.528 6.704-47.994 104.005z" fill="#89a8f5"></path>
		<path d="M56 104h16v16H56zm32 0h40v16H88zm-32 32h16v16H56zm48 0h40v16h-40zm56 0h16v16h-16zm-32 32h56v16h-56zM56 280h16v16H56zm32 0h40v16H88zm-32 32h16v16H56zm48 0h96v16h-96zm112 0h16v16h-16zm-40 32h80v16h-80zm-48 0h32v16h-32zm16-112h104v16H144zm-16-32h72v16h-72zm-32 0h16v16H96zm168 32h56v16h-56zM120 376h80v16h-80zm-24 32h48v16H96zm64 0h24v16h-24zm-8 32h80v16h-80z" fill="#3d44d1"></path>
		<circle cx="48" cy="48" fill="#f79a7e" r="8"></circle>
		<circle cx="72" cy="48" fill="#f7c04a" r="8"></circle>
		<circle cx="96" cy="48" fill="#90d4b1" r="8"></circle>
	</symbol>
	<symbol xmlns="http://www.w3.org/2000/svg" viewBox="0 0 512 512" id="strings">
		<rect fill="#ff2b63" height="113.137" rx="16" transform="rotate(-45 414.583 414.734)" width="113.137" x="358.059" y="358.059"></rect>
		<path d="M483.313 403.314l-51.844-51.845a129.18 129.18 0 01-39.343 120.657l11.187 11.188a16 16 0 0022.628 0l57.372-57.373a16 16 0 000-22.627z" fill="#e5235f"></path>
		<rect fill="#ffcd01" height="112" rx="16" width="112" x="136" y="248"></rect>
		<path d="M240.373 250.385a194.677 194.677 0 01-101.988 101.988A15.974 15.974 0 00152 360h80a16 16 0 0016-16v-80a15.974 15.974 0 00-7.627-13.615z" fill="#ffba01"></path>
		<rect fill="#8726e2" height="112" rx="16" width="112" x="136" y="136"></rect>
		<path d="M240.373 138.385a194.677 194.677 0 01-101.988 101.988A15.974 15.974 0 00152 248h80a16 16 0 0016-16v-80a15.974 15.974 0 00-7.627-13.615z" fill="#691daf"></path>
		<rect fill="#703f16" height="112" rx="16" width="112" x="360" y="24"></rect>
		<path d="M464.373 26.385a194.677 194.677 0 01-101.988 101.988A15.974 15.974 0 00376 136h80a16 16 0 0016-16V40a15.974 15.974 0 00-7.627-13.615z" fill="#603813"></path>
		<rect fill="#ff9f03" height="112" rx="16" width="112" x="248" y="24"></rect>
		<path d="M352.373 26.385a194.677 194.677 0 01-101.988 101.988A15.974 15.974 0 00264 136h80a16 16 0 0016-16V40a15.974 15.974 0 00-7.627-13.615z" fill="#ff891f"></path>
		<rect fill="#48bdff" height="112" rx="16" width="112" x="136" y="24"></rect>
		<path d="M240.373 26.385a194.677 194.677 0 01-101.988 101.988A15.974 15.974 0 00152 136h80a16 16 0 0016-16V40a15.974 15.974 0 00-7.627-13.615z" fill="#3ba4f2"></path>
		<rect fill="#3bdabe" height="112" rx="16" width="112" x="24" y="24"></rect>
		<path d="M128.373 26.385A194.677 194.677 0 0126.385 128.373 15.974 15.974 0 0040 136h80a16 16 0 0016-16V40a15.974 15.974 0 00-7.627-13.615z" fill="#38c1a7"></path>
		<g fill="#e6e6e6">
			<rect height="112" rx="16" width="112" x="136" y="360"></rect>
			<path d="M176 112h32a8 8 0 000-16h-24V56a8 8 0 00-16 0v48a8 8 0 008 8zm43.578 160.845a8 8 0 00-10.733 3.577L192 310.111l-16.845-33.689a8 8 0 00-14.31 7.156l24 48a8 8 0 0014.31 0l24-48a8 8 0 00-3.577-10.733zm224.706 146.411a8 8 0 00-11.314 0l-8.057 8.057-5.829-5.828 9.2-9.2a8 8 0 00-11.314-11.313l-9.2 9.2-5.83-5.829 8.06-8.059a8 8 0 00-11.314-11.313l-13.716 13.714a8 8 0 000 11.314l34.285 34.285a8 8 0 0011.314 0l13.714-13.714a8 8 0 00.001-11.314zM80 48H64a8 8 0 00-8 8v48a8 8 0 0016 0v-8h8a24 24 0 000-48zm0 32h-8V64h8a8 8 0 010 16zm231.155-27.578a8 8 0 00-14.31 0l-24 48a8 8 0 0014.31 7.156l2.789-5.578h28.112l2.789 5.578a8 8 0 1014.31-7.156zM297.944 86L304 73.889 310.056 86zM408 82.422V104a8 8 0 0016 0V82.422l14.656-21.984a8 8 0 10-13.312-8.876L416 65.578l-9.344-14.016a8 8 0 00-13.312 8.876zM192 160a32 32 0 1032 32 32.036 32.036 0 00-32-32zm0 48a16 16 0 1116-16 16.019 16.019 0 01-16 16z"></path>
		</g>
		<rect fill="#fdc47d" height="112" rx="16" width="112" x="360" y="136"></rect>
		<path d="M464.373 138.385a194.677 194.677 0 01-101.988 101.988A15.974 15.974 0 00376 248h80a16 16 0 0016-16v-80a15.974 15.974 0 00-7.627-13.615z" fill="#ffb769"></path>
		<path d="M240.373 362.385a194.677 194.677 0 01-101.988 101.988A15.974 15.974 0 00152 472h80a16 16 0 0016-16v-80a15.974 15.974 0 00-7.627-13.615z" fill="#d3d3d3"></path>
	</symbol>
	<symbol xmlns="http://www.w3.org/2000/svg" viewBox="0 0 512 512" id="growth">
		<path d="M50.726 197.398a6.508 6.508 0 010-9.192c1.228-1.228 2.86-1.904 4.597-1.904s3.369.676 4.597 1.904l56.494 56.494c-3.625-26.051-15.441-51.18-35.473-71.211-21.075-21.075-47.792-33.064-75.288-35.979a5.104 5.104 0 00-5.622 5.622c2.916 27.497 14.904 54.213 35.979 75.288 20.031 20.032 45.161 31.847 71.211 35.473z" fill="#05e39c"></path>
		<path d="M50.019 198.106a7.489 7.489 0 01-2.034-6.84A124.535 124.535 0 0122.15 140.4a125.724 125.724 0 00-16.499-2.89 5.105 5.105 0 00-5.622 5.622c2.916 27.497 14.904 54.213 35.979 75.288 19.607 19.607 44.098 31.343 69.556 35.232z" fill="#0ed290"></path>
		<path d="M264.064 137.509c-27.497 2.916-54.213 14.904-75.288 35.979-20.032 20.032-31.848 45.16-35.473 71.211l56.494-56.494c1.228-1.228 2.86-1.904 4.597-1.904s3.369.676 4.597 1.904a6.508 6.508 0 010 9.192l-56.494 56.494c26.051-3.625 51.18-15.441 71.211-35.473 21.075-21.075 33.064-47.792 35.979-75.288a5.106 5.106 0 00-5.623-5.621z" fill="#05e39c"></path>
		<path d="M264.064 137.509c-27.497 2.916-54.213 14.904-75.288 35.979-19.607 19.607-31.343 44.098-35.232 69.556l41.131-41.131a126.198 126.198 0 0110.475-11.905c17.773-17.773 39.564-29.058 62.446-33.914.915-4.29 1.629-8.614 2.091-12.963a5.106 5.106 0 00-5.623-5.622z" fill="#0ed290"></path>
		<path d="M127.357 297.707c2.471-.228 4.97-.36 7.5-.36s5.029.132 7.5.36v-22.263l77.339-77.339a7.5 7.5 0 00-10.607-10.606l-66.731 66.731v-36.837c0-4.142-3.357-7.5-7.5-7.5s-7.5 3.358-7.5 7.5v36.837l-66.731-66.731a7.5 7.5 0 00-10.607 10.606l77.339 77.339v22.263z" fill="#c99c56"></path>
		<circle cx="134.858" cy="378.31" fill="#fed402" r="74.463"></circle>
		<path d="M91.866 378.31c0-35.724 25.163-65.559 58.728-72.782a74.704 74.704 0 00-15.736-1.681c-41.125 0-74.463 33.338-74.463 74.463s33.338 74.463 74.463 74.463a74.71 74.71 0 0015.736-1.681c-33.566-7.223-58.728-37.058-58.728-72.782z" fill="#fac600"></path>
		<path d="M142.859 370.81h-16.004c-3.849 0-6.98-3.131-6.98-6.98s3.132-6.98 6.98-6.98h28.198c4.143 0 7.5-3.358 7.5-7.5s-3.357-7.5-7.5-7.5h-12.696v-7.361c0-4.142-3.357-7.5-7.5-7.5s-7.5 3.358-7.5 7.5v7.361h-.502c-12.12 0-21.98 9.86-21.98 21.98s9.86 21.98 21.98 21.98h16.004c3.849 0 6.98 3.131 6.98 6.98s-3.132 6.98-6.98 6.98h-28.197c-4.143 0-7.5 3.358-7.5 7.5s3.357 7.5 7.5 7.5h12.695v7.361c0 4.142 3.357 7.5 7.5 7.5s7.5-3.358 7.5-7.5v-7.361h.502c12.12 0 21.98-9.86 21.98-21.98.001-12.119-9.859-21.98-21.98-21.98z" fill="#c99c56"></path>
		<path d="M275.454 446.273v-87.409a5.08 5.08 0 00-5.08-5.08h-23.929a5.08 5.08 0 00-5.08 5.08v87.409z" fill="#fd5426"></path>
		<path d="M257.326 446.273v-87.409a5.08 5.08 0 015.08-5.08h-15.961a5.08 5.08 0 00-5.08 5.08v87.409z" fill="#ef4424"></path>
		<path d="M341.361 446.273V286.189a5.08 5.08 0 00-5.08-5.08h-23.929a5.08 5.08 0 00-5.08 5.08v160.084z" fill="#fed402"></path>
		<path d="M323.306 446.273V286.189a5.08 5.08 0 015.08-5.08h-16.035a5.08 5.08 0 00-5.08 5.08v160.084z" fill="#fac600"></path>
		<path d="M407.268 446.273v-191.41a5.08 5.08 0 00-5.08-5.08h-23.929a5.08 5.08 0 00-5.08 5.08v191.41z" fill="#01d0fb"></path>
		<path d="M389.711 446.273v-191.41a5.08 5.08 0 015.08-5.08h-16.532a5.08 5.08 0 00-5.08 5.08v191.41z" fill="#01c0fa"></path>
		<path d="M473.174 446.273V202.236a5.08 5.08 0 00-5.08-5.08h-23.929a5.08 5.08 0 00-5.08 5.08v244.037z" fill="#05e39c"></path>
		<path d="M454.677 446.273V202.236a5.08 5.08 0 015.08-5.08h-15.592a5.08 5.08 0 00-5.08 5.08v244.037z" fill="#0ed290"></path>
		<path d="M504.5 445.273H182.033c21.021-14.854 34.787-39.323 34.787-66.963 0-45.195-36.769-81.963-81.963-81.963s-81.963 36.769-81.963 81.963 36.769 81.963 81.963 81.963H504.5c4.143 0 7.5-3.358 7.5-7.5s-3.357-7.5-7.5-7.5zM67.895 378.31c0-36.924 30.039-66.963 66.963-66.963s66.963 30.04 66.963 66.963-30.039 66.963-66.963 66.963-66.963-30.04-66.963-66.963z" fill="#e8b800"></path>
		<path d="M419.51 81.769L244.062 257.217c-6.531 6.531-6.531 17.121 0 23.652 6.531 6.531 17.121 6.531 23.652 0l175.448-175.448a3.046 3.046 0 014.307 0l10.954 10.954c1.757 1.757 4.766.783 5.16-1.67l9.552-59.449a3.046 3.046 0 00-3.465-3.494l-59.883 9.118c-2.468.376-3.46 3.399-1.695 5.164l11.419 11.419a3.046 3.046 0 01-.001 4.306z" fill="#7ca1b1"></path>
		<path d="M265.269 280.87c-6.531-6.531-6.531-17.121 0-23.652L440.717 81.769a3.046 3.046 0 000-4.307l-18.479-18.478-12.452 1.896c-2.468.376-3.46 3.399-1.695 5.164l11.419 11.419a3.046 3.046 0 010 4.307L244.062 257.217c-6.531 6.531-6.531 17.121 0 23.652 6.139 6.139 15.86 6.505 22.43 1.105-.421-.345-.83-.711-1.223-1.104z" fill="#678d98"></path>
	</symbol>
	<symbol xmlns="http://www.w3.org/2000/svg" viewBox="0 0 512 512" id="timer">
		<path d="M148.402 79.909a8.559 8.559 0 00-11.69-3.133L114.655 89.51a8.558 8.558 0 00-3.132 11.69l20.913 36.222 3.504.453 33.126-19.16V115.7z" fill="#3f6d8e"></path>
		<path d="M130.726 89.685a10.734 10.734 0 01-.816-8.98l-15.254 8.807a8.558 8.558 0 00-3.132 11.69l20.913 36.222 3.504.453 16.948-9.803zm144.246-49.049h-38.245l-2.019 1.948v55.163l1.761 2.254h37.602l3.221-2.254V42.584z" fill="#365e7d"></path>
		<path d="M256 42.584l2.019-1.948h-21.292l-2.019 1.948v55.163l1.761 2.254h21.292L256 97.747z" fill="#294b64"></path>
		<circle cx="256" cy="304.334" fill="#90d8f9" transform="rotate(-45 255.964 304.404)" r="207.666"></circle>
		<path d="M82.78 304.334c0-108.89 83.812-198.194 190.443-206.95A210.1 210.1 0 00256 96.668c-114.691 0-207.666 92.975-207.666 207.666S141.309 512 256 512c5.801 0 11.543-.25 17.223-.716-106.631-8.756-190.443-98.06-190.443-206.95z" fill="#75cef9"></path>
		<circle cx="256" cy="304.334" fill="#f4fbff" transform="rotate(-45 255.964 304.404)" r="166.458"></circle>
		<path d="M136.415 304.334c0-83.83 62.295-153.374 143.022-164.8A167.163 167.163 0 00256 137.876c-91.785 0-166.458 74.673-166.458 166.458S164.215 470.792 256 470.792c7.955 0 15.777-.574 23.437-1.658-80.727-11.426-143.022-80.97-143.022-164.8z" fill="#e4f6ff"></path>
		<path d="M299.63 0h-87.26a9.253 9.253 0 00-9.253 9.253v24.078a9.253 9.253 0 009.253 9.253h87.26a9.253 9.253 0 009.253-9.253V9.253C308.882 4.143 304.74 0 299.63 0z" fill="#3f6d8e"></path>
		<path d="M242.608 33.331V9.253A9.253 9.253 0 01251.861 0h-39.49a9.253 9.253 0 00-9.253 9.253v24.078a9.253 9.253 0 009.253 9.253h39.49a9.253 9.253 0 01-9.253-9.253z" fill="#365e7d"></path>
		<path d="M256 137.876v132.012l2.361 3.184 24.467 19.058h88.853l13.65 8.499 3.178 3.705h33.95c0-91.785-74.674-166.458-166.459-166.458z" fill="#dd636e"></path>
		<path d="M289.204 141.206a166.602 166.602 0 00-33.204-3.33v132.012l2.361 3.184 24.467 19.058h6.376z" fill="#da4a54"></path>
		<path d="M225.228 288.881H197.41c-8.534 0-15.453 6.919-15.453 15.453s6.919 15.453 15.453 15.453h27.818l1.541-3.276v-24.896zm147.828 0h-86.285l-2.656 2.046v23.866l2.656 4.993h86.285c8.534 0 15.453-6.919 15.453-15.453s-6.919-15.452-15.453-15.452z" fill="#ffaa5b"></path>
		<path d="M197.41 304.334c-5.716 0-10.695-3.112-13.368-7.726a15.357 15.357 0 00-2.084 7.726c0 8.534 6.919 15.453 15.453 15.453h27.818l1.541-3.276v-15.453l-1.541 3.276H197.41zm175.646 0h-86.285l-2.656-4.993v15.453l2.656 4.993h86.285c8.534 0 15.453-6.919 15.453-15.453 0-2.818-.766-5.452-2.084-7.726-2.673 4.614-7.653 7.726-13.369 7.726z" fill="#ff9838"></path>
		<path d="M256 130.15c-96.045 0-174.184 78.139-174.184 174.184S159.954 478.519 256 478.519s174.185-78.139 174.185-174.184S352.046 130.15 256 130.15zm85.938 307.581l-3.53-6.114a7.725 7.725 0 00-10.554-2.828 7.726 7.726 0 00-2.828 10.554l3.543 6.137a157.614 157.614 0 01-64.843 17.395v-7.106a7.726 7.726 0 10-15.452 0v7.106a157.614 157.614 0 01-64.843-17.395l3.543-6.137a7.726 7.726 0 00-2.828-10.554 7.725 7.725 0 00-10.554 2.828l-3.53 6.114a160.013 160.013 0 01-47.459-47.458l6.114-3.53a7.726 7.726 0 002.828-10.554 7.725 7.725 0 00-10.554-2.828l-6.137 3.543a157.614 157.614 0 01-17.395-64.843h7.107a7.726 7.726 0 100-15.452h-7.107a157.614 157.614 0 0117.395-64.843l6.137 3.543a7.725 7.725 0 0010.554-2.828 7.725 7.725 0 00-2.828-10.554l-6.114-3.53a160.001 160.001 0 0147.459-47.458l3.53 6.114a7.725 7.725 0 0010.554 2.828 7.725 7.725 0 002.828-10.554l-3.543-6.137a157.614 157.614 0 0164.843-17.395v7.107a7.726 7.726 0 1015.452 0v-7.107a157.614 157.614 0 0164.843 17.395l-3.543 6.137a7.725 7.725 0 002.828 10.554 7.725 7.725 0 0010.554-2.828l3.53-6.114a160.025 160.025 0 0147.459 47.458l-6.114 3.53a7.726 7.726 0 107.726 13.382l6.137-3.543c10.121 19.604 16.274 41.574 17.395 64.843h-7.107a7.726 7.726 0 100 15.452h7.107a157.614 157.614 0 01-17.395 64.843l-6.137-3.543a7.724 7.724 0 00-10.554 2.828 7.726 7.726 0 002.828 10.554l6.114 3.53a160.025 160.025 0 01-47.459 47.458z" fill="#365e7d"></path>
		<ellipse cx="256" cy="304.334" fill="#ffba7e" rx="34.446" ry="34.447" transform="rotate(-67.48 256.107 304.278)"></ellipse>
		<path d="M245.763 304.334c0-14.735 9.303-27.334 22.342-32.245A34.275 34.275 0 00256 269.888c-18.994 0-34.446 15.453-34.446 34.446 0 18.994 15.453 34.447 34.446 34.447 4.259 0 8.336-.782 12.105-2.201-13.04-4.912-22.342-17.51-22.342-32.246z" fill="#ffaa5b"></path>
	</symbol>
</svg>